<?xml version="1.0" encoding="UTF-8"?>
<svg width="1200" height="600" viewBox="0 0 1200 600" xmlns="http://www.w3.org/2000/svg">
<defs>
  <style type="text/css">
    .chart-title { font: bold 20px sans-serif; fill: #333; }
    .axis-label { font: 12px sans-serif; fill: #666; }
    .grid-line { stroke: #e0e0e0; stroke-width: 1; }
    .axis-line { stroke: #333; stroke-width: 2; }
    .overall-line { stroke: #2196F3; stroke-width: 3; fill: none; }
    .target-line { stroke-width: 2; fill: none; }
    .threshold-line { stroke: #f44336; stroke-width: 2; stroke-dasharray: 5,5; fill: none; }
    .data-point { fill: #2196F3; }
    .legend-text { font: 12px sans-serif; fill: #333; }
    .legend-rect { stroke: #333; stroke-width: 1; }
  </style>
</defs>
  <text x="600.0" y="30" text-anchor="middle" class="chart-title">Coverage Trend History</text>
  <line x1="60.0" y1="60.0" x2="1080.0" y2="60.0" class="grid-line"/>
  <line x1="60.0" y1="108.0" x2="1080.0" y2="108.0" class="grid-line"/>
  <line x1="60.0" y1="156.0" x2="1080.0" y2="156.0" class="grid-line"/>
  <line x1="60.0" y1="204.0" x2="1080.0" y2="204.0" class="grid-line"/>
  <line x1="60.0" y1="252.0" x2="1080.0" y2="252.0" class="grid-line"/>
  <line x1="60.0" y1="300.0" x2="1080.0" y2="300.0" class="grid-line"/>
  <line x1="60.0" y1="348.0" x2="1080.0" y2="348.0" class="grid-line"/>
  <line x1="60.0" y1="396.0" x2="1080.0" y2="396.0" class="grid-line"/>
  <line x1="60.0" y1="444.0" x2="1080.0" y2="444.0" class="grid-line"/>
  <line x1="60.0" y1="492.0" x2="1080.0" y2="492.0" class="grid-line"/>
  <line x1="60.0" y1="540.0" x2="1080.0" y2="540.0" class="grid-line"/>

  <line x1="60.0" y1="540.0" x2="1080.0" y2="540.0" class="axis-line"/>
  <line x1="60.0" y1="60.0" x2="60.0" y2="540.0" class="axis-line"/>
  <text x="50.0" y="65.0" text-anchor="end" class="axis-label">100%</text>
  <text x="50.0" y="113.0" text-anchor="end" class="axis-label">90%</text>
  <text x="50.0" y="161.0" text-anchor="end" class="axis-label">80%</text>
  <text x="50.0" y="209.0" text-anchor="end" class="axis-label">70%</text>
  <text x="50.0" y="257.0" text-anchor="end" class="axis-label">60%</text>
  <text x="50.0" y="305.0" text-anchor="end" class="axis-label">50%</text>
  <text x="50.0" y="353.0" text-anchor="end" class="axis-label">40%</text>
  <text x="50.0" y="401.0" text-anchor="end" class="axis-label">30%</text>
  <text x="50.0" y="449.0" text-anchor="end" class="axis-label">20%</text>
  <text x="50.0" y="497.0" text-anchor="end" class="axis-label">10%</text>
  <text x="50.0" y="545.0" text-anchor="end" class="axis-label">0%</text>


  <line x1="1090.0" y1="75.0" x2="1120.0" y2="75.0" class="overall-line"/>
  <text x="1125.0" y="80.0" class="legend-text">Overall</text>

</svg>
